<?xml version="1.0" encoding="UTF-8" standalone="no"?>
<!-- Created with Inkscape (http://www.inkscape.org/) -->

<svg
   width="128.62276mm"
   height="128.76505mm"
   viewBox="0 0 128.62276 128.76505"
   version="1.1"
   id="svg5"
   xml:space="preserve"
   inkscape:export-filename="qrlogo.svg"
   inkscape:export-xdpi="96"
   inkscape:export-ydpi="96"
   inkscape:version="1.2.2 (732a01da63, 2022-12-09)"
   sodipodi:docname="qrlogo-editable.svg"
   xmlns:inkscape="http://www.inkscape.org/namespaces/inkscape"
   xmlns:sodipodi="http://sodipodi.sourceforge.net/DTD/sodipodi-0.dtd"
   xmlns="http://www.w3.org/2000/svg"
   xmlns:svg="http://www.w3.org/2000/svg"><sodipodi:namedview
     id="namedview7"
     pagecolor="#ffffff"
     bordercolor="#000000"
     borderopacity="0.25"
     inkscape:showpageshadow="2"
     inkscape:pageopacity="0.0"
     inkscape:pagecheckerboard="0"
     inkscape:deskcolor="#d1d1d1"
     inkscape:document-units="mm"
     showgrid="false"
     inkscape:zoom="0.73851712"
     inkscape:cx="288.41579"
     inkscape:cy="561.93687"
     inkscape:window-width="2560"
     inkscape:window-height="1009"
     inkscape:window-x="-8"
     inkscape:window-y="-8"
     inkscape:window-maximized="1"
     inkscape:current-layer="layer1" /><defs
     id="defs2" /><g
     inkscape:label="Capa 1"
     inkscape:groupmode="layer"
     id="layer1"
     transform="translate(-19.945557,-141.6542)"><path
       style="fill:#167c5c;fill-opacity:1;stroke-width:0.264583"
       d="m 79.732492,270.35992 c -6.6699,-0.6625 -11.00504,-1.52728 -16.00729,-3.19318 -8.88014,-2.95735 -17.52309,-8.22221 -24.0932,-14.67638 -10.28239,-10.10095 -16.55443,-21.98137 -19.07235,-36.12658 -0.51807,-2.91043 -0.60573,-4.32136 -0.6137,-9.87772 -0.01,-6.80342 0.16281,-8.59741 1.34884,-14.02292 1.55833,-7.12853 5.05147,-15.42735 9.02085,-21.43124 10.82904,-16.37948 28.14996,-26.98972 47.48819,-29.08974 5.80138,-0.63 13.904527,-0.20179 19.788027,1.0457 19.755821,4.18886 37.064181,18.2793 45.498881,37.03987 8.80055,19.57426 6.89454,42.91922 -4.98216,61.02194 -2.88937,4.40405 -4.90359,6.86672 -8.74297,10.68948 -10.16307,10.11912 -23.03146,16.45316 -37.065421,18.24423 -2.37469,0.30307 -10.773847,0.55471 -12.567697,0.37654 z m 8.293797,-10.16589 c 13.232301,-0.90347 25.263191,-6.37369 34.576831,-15.72144 18.4176,-18.48503 21.26256,-46.72136 6.87972,-68.28132 -6.83655,-10.24802 -16.06114,-17.40199 -27.78994,-21.55198 -14.664678,-5.18879 -31.559898,-3.41277 -45.111448,4.74211 -13.48393,8.11419 -22.60076,20.92704 -25.79807,36.25674 -0.85436,4.09627 -1.18239,11.99515 -0.68125,16.40417 2.71257,23.8652 20.82743,43.18555 44.5364,47.50015 1.93459,0.35206 3.86865,0.53909 9.0627,0.87638 0.29105,0.0189 2.23732,-0.0823 4.325057,-0.22481 z M 78.806442,251.191 c -12.96328,-1.59131 -24.30936,-8.29163 -31.81795,-18.78977 -2.15071,-3.00701 -5.18792,-8.98989 -6.27143,-12.35385 -1.55912,-4.84056 -1.98742,-7.8233 -1.98526,-13.8259 0.003,-7.24708 0.83602,-11.47707 3.49273,-17.72709 2.98026,-7.01116 7.47344,-12.97904 13.26537,-17.61918 8.5094,-6.8172 17.98535,-10.20366 28.60821,-10.22382 10.219397,-0.0194 17.942258,2.4334 26.722908,8.48721 3.17664,2.19013 8.28598,7.29237 10.63932,10.62454 5.38309,7.62212 8.30072,16.39473 8.45822,25.43183 0.0504,2.88922 0.0142,3.12357 -0.65824,4.27105 -0.95336,1.6268 -3.06137,2.72054 -4.75415,2.46669 -1.51901,-0.22779 -2.66626,-0.96631 -3.53099,-2.27301 -0.65449,-0.989 -0.73207,-1.38699 -0.91741,-4.70668 -0.30663,-5.49225 -1.43454,-9.87497 -3.70187,-14.38447 -5.10532,-10.15399 -13.9493,-16.93161 -25.196481,-19.30944 -3.771277,-0.7973 -10.056527,-0.79798 -13.746277,-0.002 -5.18677,1.11965 -9.09313,2.74325 -13.23593,5.50122 -5.08653,3.38624 -9.33472,8.28866 -12.10902,13.97382 -4.14507,8.4942 -4.7591,17.56837 -1.78902,26.43832 3.5388,10.56842 11.90298,18.93578 22.54766,22.55628 7.07993,2.40804 16.467527,2.32438 23.653717,-0.2108 8.411391,-2.9674 15.619551,-9.21751 19.504501,-16.9121 1.27899,-2.53321 2.49156,-3.77991 4.09684,-4.21217 2.83729,-0.764 5.78209,1.34727 6.0237,4.31869 0.10101,1.24228 -0.025,1.64124 -1.35218,4.28039 -4.35109,8.65242 -11.31495,15.51498 -20.15009,19.85698 -3.66806,1.80265 -7.851301,3.17263 -11.768251,3.85401 -3.50562,0.60983 -10.933987,0.86863 -14.028627,0.48875 z m 6.06997,-18.4975 c -1.22576,-0.37194 -1.84311,-0.82097 -2.63869,-1.91923 -0.66982,-0.92466 -0.78544,-1.32575 -0.78544,-2.72467 0,-1.38809 0.11735,-1.80241 0.763,-2.69369 0.92458,-1.27635 1.99743,-1.81787 4.34429,-2.19278 3.365267,-0.53761 6.407767,-1.92263 8.839547,-4.024 8.859261,-7.65551 8.042461,-20.49079 -1.72439,-27.09708 -3.51823,-2.37974 -8.794587,-3.3342 -13.116427,-2.37268 -6.53311,1.45348 -11.82354,6.74443 -13.27724,13.27853 -1.2363,5.55691 0.82659,11.48761 5.6383,16.20987 2.0202,1.98264 2.62027,4.02563 1.77595,6.04637 -0.78902,1.88841 -2.43651,2.97775 -4.50344,2.97775 -1.70219,0 -2.783,-0.58958 -4.76129,-2.59727 -3.39065,-3.44103 -6.16756,-8.35207 -7.43301,-13.14544 -0.59569,-2.2564 -0.6985,-3.19103 -0.6985,-6.35 0,-3.15861 0.10255,-4.09106 0.69627,-6.33111 1.68012,-6.33889 5.63098,-12.01604 10.80965,-15.53281 2.13715,-1.4513 5.43485,-2.98059 8.28166,-3.84054 2.21825,-0.67008 2.71632,-0.71958 7.27604,-0.72317 4.230177,-0.003 5.176957,0.0746 6.972877,0.57426 14.886091,4.14126 23.433081,19.68936 18.680341,33.98204 -3.27352,9.8443 -11.019221,16.56856 -21.123811,18.33819 -2.428877,0.42537 -3.002197,0.445 -4.015687,0.13746 z m -2.32944,-18.27775 c -2.90047,-0.60145 -5.72978,-3.19256 -6.54388,-5.99294 -0.86626,-2.97982 0.0498,-6.08688 2.4383,-8.26979 4.30684,-3.93622 11.119417,-2.55946 13.633727,2.75525 0.92959,1.96494 1.00076,3.9574 0.21625,6.05418 -1.42283,3.80285 -5.824457,6.26616 -9.744397,5.4533 z"
       id="path302"
       inkscape:export-filename="qrlogo.svg"
       inkscape:export-xdpi="96"
       inkscape:export-ydpi="96" /></g></svg>
